<svg xmlns="http://www.w3.org/2000/svg" width="421" height="62" viewBox="0 0 421 62">
  <defs>
    <style>
      .cls-1 {
        fill: #000;
        fill-rule: evenodd;
      }
    </style>
  </defs>
  <path id="Color_Fill_2" data-name="Color Fill 2" class="cls-1" d="M34.635,8.334H4.9a2.959,2.959,0,0,0-2.933,2.933v6.667A2.959,2.959,0,0,0,4.9,20.867h7.933V52a2.988,2.988,0,0,0,3,3H23.7a2.974,2.974,0,0,0,2.933-3V20.867h8a2.959,2.959,0,0,0,2.933-2.933V11.267A2.959,2.959,0,0,0,34.635,8.334ZM56.7,43.667v-6.8H68.9a2.974,2.974,0,0,0,2.933-3V29A2.959,2.959,0,0,0,68.9,26.067H56.7v-6.4H70.968a2.974,2.974,0,0,0,3-2.933V11.267a2.974,2.974,0,0,0-3-2.933H45.835A2.959,2.959,0,0,0,42.9,11.267V52a2.974,2.974,0,0,0,2.933,3h25.8a2.974,2.974,0,0,0,2.933-3V46.6a2.916,2.916,0,0,0-2.933-2.933H56.7ZM108.9,55h10.2a1.747,1.747,0,0,0,1.533-2.667L112.168,37.4c4.266-2.333,6.733-6.4,6.733-12.333,0-10.266-6.267-16.733-19.133-16.733h-16.2a2.959,2.959,0,0,0-2.933,2.933V52a2.974,2.974,0,0,0,2.933,3h7.867a2.987,2.987,0,0,0,3-3V39.934H99.5l6.733,13.4A3.047,3.047,0,0,0,108.9,55ZM94.435,20.867h5.333c3.6,0,5.133,1.4,5.133,4.2,0,3-2.067,4.133-5.133,4.133H94.435V20.867Zm64,34.133h9.333a2.362,2.362,0,0,0,2.267-3.133L156.3,10.734a3.612,3.612,0,0,0-3.4-2.4H141.035a3.611,3.611,0,0,0-3.4,2.4L123.9,51.867A2.353,2.353,0,0,0,126.1,55h9.4a2.924,2.924,0,0,0,2.867-2.2l1.467-5.333H154.1l1.467,5.333A2.923,2.923,0,0,0,158.434,55ZM142.568,37.667l4.4-15.933,4.4,15.933h-8.8Zm70.266-27.533L201.967,29.267,191.1,10.134a3.558,3.558,0,0,0-3.134-1.8h-9.933a2.959,2.959,0,0,0-2.933,2.933V52a2.974,2.974,0,0,0,2.933,3H185.9a2.988,2.988,0,0,0,3-3V29.4l10.266,17.866a2.437,2.437,0,0,0,2.067,1.2H202.7a2.435,2.435,0,0,0,2.066-1.2L215.034,29.4V52a2.987,2.987,0,0,0,3,3H225.9a2.974,2.974,0,0,0,2.933-3V11.267A2.959,2.959,0,0,0,225.9,8.334h-9.933A3.556,3.556,0,0,0,212.834,10.134Zm37.132,33.533v-6.8h12.2a2.974,2.974,0,0,0,2.934-3V29a2.96,2.96,0,0,0-2.934-2.933h-12.2v-6.4h14.267a2.974,2.974,0,0,0,3-2.933V11.267a2.974,2.974,0,0,0-3-2.933H239.1a2.959,2.959,0,0,0-2.933,2.933V52a2.974,2.974,0,0,0,2.933,3h25.8a2.974,2.974,0,0,0,2.933-3V46.6a2.916,2.916,0,0,0-2.933-2.933H249.966ZM291.7,8.334H276.9a2.974,2.974,0,0,0-3,2.933V52a2.987,2.987,0,0,0,3,3h14.8c15.533,0,25.133-8.867,25.133-23.333S307.232,8.334,291.7,8.334Zm0,34.133h-4v-21.6h4c7.334,0,11.333,4.133,11.333,10.8S299.033,42.467,291.7,42.467Zm30.734-31.2V52a2.974,2.974,0,0,0,2.933,3h7.867a2.988,2.988,0,0,0,3-3V11.267a2.974,2.974,0,0,0-3-2.933h-7.867A2.959,2.959,0,0,0,322.433,11.267Zm61.265,41L370.231,31.134l12.4-20.066a1.79,1.79,0,0,0-1.466-2.733h-10.2a2.964,2.964,0,0,0-2.6,1.467l-11,19V11.267a2.974,2.974,0,0,0-3-2.933H346.5a2.959,2.959,0,0,0-2.933,2.933V52a2.974,2.974,0,0,0,2.933,3h7.867a2.987,2.987,0,0,0,3-3V34.267L368.9,53.533A2.859,2.859,0,0,0,371.431,55h10.734A1.8,1.8,0,0,0,383.7,52.267Z"/>
</svg>
