<svg xmlns="http://www.w3.org/2000/svg" width="416" height="47.344" viewBox="0 0 416 47.344">
  <defs>
    <style>
      .cls-1 {
        fill-rule: evenodd;
      }
    </style>
  </defs>
  <path id="Color_Fill_1" data-name="Color Fill 1" class="cls-1" d="M2,7H38v9H26c-2.714,7.366-1.047,28.109-1,38H14V16H2V7ZM48,7H77v9H60c-0.842,2.232-1.029,5.438-1,9,3.809,1.422,10.65,1.048,16,1v8H60c-0.918,2.437-1.037,6.193-1,10,4.293,1.6,12.12,1.049,18,1v9H48V7ZM89,7h23c2.493,0.761,5.168,2.371,8,3l2,3h1c2.215,3.389,2.032,8.345,2,14-2,1.7-.86,2.411-2,4l-2,1v1h-2v1c-2,1.148-2.431.187-4,2l11,18H113c-1.553-3.757-4.2-6.676-6-10q-1-3-2-6h-1c-1.345-1.5-.5-1.351-3-2v1c-2.3,2.522-1.1,12.542-1,17H89V7Zm63,0h13l17,47H170c-0.584-3.144-1.621-4.461-2-8H150c-3.117,8.708-3.022,8.468-15,8V53h1q0.5-3,1-6h1V45h1V42h1V39h1V36h1V33h1V31h1q0.5-3,1-6h1V22h1V20h1V17C149.239,13.931,151.183,10.6,152,7Zm40,0h14q1,3.5,2,7h1v3h1v2h1v3c2.324,5.239,5.633,10.665,7,17h1V38L232,7h13V54H234V27h-1v2h-1q-0.5,3-1,6h-1v2h-1v3h-1v3h-1v2h-1v3h-1c-1.19,2.855.242,3-2,5v1h-9L204,27h-1V54H192V7Zm66,0h29v9H270c-0.842,2.232-1.029,5.438-1,9,3.809,1.422,10.65,1.048,16,1v8H270c-0.918,2.437-1.037,6.193-1,10,4.293,1.6,12.12,1.049,18,1v9H258V7Zm41,0c12.115-.183,25.741-0.9,33,4l4,5,2,1c1.155,1.683.03,2.259,2,4q0.5,8,1,16h-1v3h-1v2h-1v2h-1a8.389,8.389,0,0,0-2,4l-3,1v1h-2l-1,2-7,1v1H299V7Zm54,0h11V54H353V7Zm24,0h11V27h2c0.5-2.094,2.71-5.491,4-7l2-1V17l3-2V13l3-2V9h1l1-2h13V8c-2.08,1.7-2.383,3.74-4,6l-4,3v2l-3,2-1,3h-1c-2.063,2.488-3.525,3.759-4,8l4,3v2l4,3v2l3,2v2l3,2a39.6,39.6,0,0,1,4,6H404c-0.674-1.288-1.558-1.346-2-2V50l-3-2V46l-3-2V42l-4-3V37l-4-3V54H377V7ZM100,17V28h11c1.708-2.937,2.891-2.863,3-8-1.139-1.139-.4,0-1-2A76.014,76.014,0,0,0,100,17Zm210,0V44h11V43l4-1a21.882,21.882,0,0,1,4-5c0.343-4.47,1.213-5.419,0-9V24h-1c-1.287-4.938-4.354-4-7-7H310ZM153,37h11c-0.307-4.317-2.665-7.7-4-11q-0.5-3-1-6h-1Q155.5,28.5,153,37Z" transform="translate(-2 -6.844)"/>
</svg>
